# xmcd
#
# Track frame offsets: 
#        150
#        12325
#        27002
#        38837
#        56350
#        74520
#        90167
#        104892
#        117937
#        132995
#
# Disc length: 1976 seconds
#
# Revision: 2
# Processed by: cddbd v1.5.2PL0 Copyright (c) Steve Scherf et al.
# Submitted via: ExactAudioCopyFreeDBPlugin 1.0
#
DISCID=8007b60a
DTITLE=Joni Harms - Hometown Girl
DYEAR=1990
DGENRE=Country
TTITLE0=Tear it up
TTITLE1=If You Were Me
TTITLE2=You Don't Need To Knock
TTITLE3=What Kind Of Line Does A Woman Use
TTITLE4=I Used To Be You
TTITLE5=The Only Thing Bluer Than His Eyes
TTITLE6=You're The Heart Of It All
TTITLE7=I Need A Wife
TTITLE8=There's No Heart So Strong
TTITLE9=Hometown Girl
EXTD=
EXTT0=
EXTT1=
EXTT2=
EXTT3=
EXTT4=
EXTT5=
EXTT6=
EXTT7=
EXTT8=
EXTT9=
PLAYORDER=
